<svg width="600" height="600" viewBox="0 0 600 600" fill="currentColor" xmlns="http://www.w3.org/2000/svg">
<g clip-path="url(#clip0_3_22688)">
<path d="M370.627 211.952C370.057 211.411 369.25 211.641 368.538 211.593C363.247 211.526 359.678 211.492 354.963 211.363C336.033 211.003 317.094 210.833 298.161 211.222C288.213 211.386 278.259 211.532 268.335 212.251C260.111 212.955 251.892 213.979 243.79 215.549C235.957 217.211 228.175 219.485 221.117 223.321C215.8 226.243 210.796 229.817 206.541 234.138C201.681 239.216 197.643 245.194 195.383 251.865C194.22 255.232 193.604 258.749 193.338 262.291C192.907 266.771 192.959 271.283 193.104 275.777C193.437 282.862 194.513 330.769 195.071 337.839C195.45 343.814 196.028 349.784 197.073 355.687C197.66 358.815 198.21 361.97 199.205 365.003C199.098 361.852 199.329 358.7 199.372 355.549C199.477 350.753 199.552 345.948 199.242 341.157C198.415 327.853 195.979 270.291 197.712 258.847C200.683 241.301 216.026 228.434 231.866 222.942C239.243 220.339 246.963 218.876 254.693 217.777C265.884 216.095 278.531 215.549 291.196 215.336C302.078 215.149 312.958 214.98 323.843 214.925C332.955 214.896 342.07 214.925 351.182 214.778C357.939 214.64 362.802 214.52 369.744 214.088C370.242 214.088 370.737 213.786 370.899 213.312C371.115 212.872 370.977 212.294 370.63 211.955L370.627 211.952Z" />
</g>
<g clip-path="url(#clip1_3_22688)">
<path d="M399.65 207.604C398.821 205.712 397.385 204.234 395.913 202.851C393.27 200.474 390.03 198.772 386.534 198.244C383.513 197.66 380.257 198.116 377.603 199.749C376.207 200.637 375.073 201.904 374.05 203.208C372.932 204.749 371.841 206.34 371.021 208.075C369.989 210.485 369.687 213.257 370.354 215.816C371.285 218.581 373.137 220.999 375.308 222.869C376.477 223.929 377.905 224.333 379.344 224.214C379.463 224.344 379.585 224.471 379.711 224.593C379.965 224.922 380.346 225.21 380.648 225.437C381.45 225.974 382.357 226.336 383.283 226.588C383.27 226.582 383.256 226.577 383.243 226.571C384.631 226.995 386.105 227.02 387.541 226.998C390.165 226.928 392.698 226.004 394.887 224.543C396.92 223.16 398.692 221.336 399.712 219.04C401.556 215.509 401.321 211.157 399.653 207.607L399.65 207.604ZM396.893 217.95C395.676 220.479 393.205 222.518 389.674 223.647C389.671 223.647 389.669 223.647 389.666 223.647C388.535 223.882 387.379 223.995 386.224 223.976C385.581 223.946 384.947 223.86 384.307 223.788C384.088 223.78 383.259 223.575 383.111 223.544C382.438 223.329 381.777 223.069 381.08 222.961C380.956 222.941 380.832 222.916 380.705 222.902C379.768 222.352 379.171 222.086 378.129 221.325C377.349 220.783 376.628 220.16 375.978 219.46C375.043 218.442 374.293 217.264 373.621 216.049C373.186 215.324 372.638 213.323 373.189 210.991C373.456 209.746 374.201 208.232 375.238 206.782C376.512 204.862 377.565 203.559 378.669 202.721C380.638 201.26 383.235 200.731 386.14 201.296C388.475 201.705 389.515 202.131 391.934 203.578C392.827 204.229 395.881 206.564 396.821 208.636C397.946 210.952 398.764 214.632 396.888 217.952L396.893 217.95Z" />
<path d="M383.28 226.588C383.348 226.616 383.423 226.643 383.461 226.638C383.402 226.621 383.34 226.604 383.28 226.588Z" />
<path d="M386.348 210.905C386.086 210.737 385.773 210.643 385.446 210.665C385.025 210.529 384.577 210.512 384.166 210.665C384.112 210.684 384.058 210.709 384.004 210.734C383.178 210.701 382.363 211.312 382.19 212.153C381.958 213.387 383.167 214.181 384.088 213.647C384.188 213.667 384.288 213.675 384.39 213.672C384.577 213.899 384.817 214.065 385.079 214.162C385.535 214.425 386.089 214.522 386.666 214.325C388.527 213.57 387.938 211.318 386.35 210.903L386.348 210.905Z" />
</g>
<g clip-path="url(#clip2_3_22688)">
<path d="M203.396 390.65C205.289 389.821 206.766 388.385 208.15 386.913C210.526 384.27 212.228 381.03 212.757 377.534C213.34 374.513 212.884 371.257 211.251 368.603C210.363 367.207 209.096 366.073 207.793 365.05C206.252 363.932 204.661 362.841 202.926 362.02C200.516 360.989 197.743 360.687 195.184 361.354C192.42 362.285 190.001 364.137 188.131 366.308C187.071 367.477 186.667 368.905 186.786 370.344C186.656 370.463 186.529 370.584 186.407 370.711C186.078 370.965 185.79 371.346 185.563 371.648C185.027 372.45 184.664 373.357 184.412 374.283C184.418 374.27 184.423 374.256 184.429 374.243C184.006 375.631 183.981 377.105 184.003 378.541C184.072 381.165 184.996 383.698 186.457 385.887C187.84 387.92 189.664 389.692 191.96 390.712C195.491 392.556 199.843 392.321 203.393 390.653L203.396 390.65ZM193.051 387.893C190.522 386.676 188.482 384.205 187.354 380.674C187.354 380.671 187.354 380.669 187.354 380.666C187.118 379.535 187.005 378.379 187.024 377.223C187.055 376.581 187.14 375.946 187.212 375.307C187.221 375.088 187.425 374.259 187.456 374.111C187.672 373.438 187.932 372.777 188.04 372.08C188.059 371.956 188.084 371.832 188.098 371.705C188.648 370.768 188.914 370.171 189.675 369.129C190.217 368.349 190.84 367.628 191.54 366.977C192.558 366.043 193.737 365.293 194.951 364.62C195.676 364.186 197.677 363.638 200.009 364.188C201.254 364.456 202.768 365.201 204.218 366.238C206.138 367.512 207.441 368.565 208.28 369.669C209.741 371.637 210.269 374.235 209.705 377.14C209.295 379.475 208.869 380.515 207.422 382.934C206.772 383.827 204.436 386.881 202.364 387.821C200.048 388.946 196.368 389.764 193.048 387.888L193.051 387.893Z" />
<path d="M184.412 374.28C184.384 374.348 184.357 374.423 184.362 374.461C184.379 374.402 184.395 374.34 184.412 374.28Z" />
<path d="M200.095 377.348C200.264 377.086 200.358 376.773 200.336 376.446C200.471 376.025 200.488 375.577 200.336 375.166C200.316 375.112 200.292 375.058 200.267 375.004C200.3 374.178 199.688 373.363 198.847 373.19C197.613 372.958 196.819 374.168 197.353 375.088C197.334 375.188 197.325 375.288 197.328 375.391C197.101 375.577 196.935 375.817 196.838 376.079C196.576 376.535 196.479 377.089 196.675 377.667C197.431 379.527 199.683 378.938 200.098 377.351L200.095 377.348Z" />
</g>
<defs>
<clipPath id="clip0_3_22688">
<rect width="178" height="154" transform="translate(193 211)"/>
</clipPath>
<clipPath id="clip1_3_22688">
<rect width="31" height="29" transform="translate(370 198)"/>
</clipPath>
<clipPath id="clip2_3_22688">
<rect width="31" height="29" transform="translate(213 361) rotate(90)"/>
</clipPath>
</defs>
</svg>
