<svg width="249" height="77" viewBox="0 0 249 77" fill="currentColor" xmlns="http://www.w3.org/2000/svg">
<path d="M229.873 63.4113C223.575 58.9143 220.257 51.6765 214.82 46.3793C200.653 34.8219 182.33 30.0763 165.87 22.6692C146.682 15.8574 125.941 15.8239 105.819 16.4744C74.6009 17.319 41.969 25.4149 17.2949 45.2824C15.5395 68.7082 -30.6422 43.2419 35.578 15.6497C54.935 6.81522 75.4484 1.55291 96.6172 0.872139C118.549 -0.55993 141.046 -0.802817 162.464 4.69146C182.27 11.4333 202.535 18.8194 220.234 30.0945C228.687 35.1658 232.822 44.4214 239.968 50.7818C248.094 57.4313 238.235 69.9089 229.873 63.4113Z" />
<path d="M174.137 76.5664C163.349 76.6668 163.307 60.2218 174.073 60.3786C193.551 58.6753 213.617 58.5755 232.599 53.6864C229.386 39.1043 222.367 25.6585 218.931 11.2099C217.858 4.76089 225.716 -0.194474 231.158 3.34781C234.18 5.23474 236.468 8.95504 235.916 12.5497C238.829 20.7624 242.068 28.8662 244.648 37.2026C246.416 44.72 251.011 52.6789 247.908 60.3867C241.864 76.2413 190.665 74.1199 174.137 76.5664Z" />
</svg>
